<mxfile host="app.diagrams.net" modified="2022-10-19T07:03:50.899Z" agent="5.0 (Macintosh; Intel Mac OS X 10_15_7) AppleWebKit/537.36 (KHTML, like Gecko) Chrome/105.0.0.0 Safari/537.36" etag="S2WTMHLfByzM93PrMwBi" version="16.4.2" type="github">
  <diagram id="prtHgNgQTEPvFCAcTncT" name="Page-1">
    <mxGraphModel dx="860" dy="512" grid="1" gridSize="10" guides="1" tooltips="1" connect="1" arrows="1" fold="1" page="1" pageScale="1" pageWidth="827" pageHeight="1169" math="0" shadow="0">
      <root>
        <mxCell id="0" />
        <mxCell id="1" parent="0" />
        <mxCell id="dNxyNK7c78bLwvsdeMH5-19" value="战场操作响应" style="swimlane;html=1;childLayout=stackLayout;resizeParent=1;resizeParentMax=0;horizontal=0;startSize=20;horizontalStack=0;" parent="1" vertex="1">
          <mxGeometry x="120" y="120" width="2200" height="350" as="geometry">
            <mxRectangle x="120" y="120" width="30" height="50" as="alternateBounds" />
          </mxGeometry>
        </mxCell>
        <mxCell id="dNxyNK7c78bLwvsdeMH5-20" value="玩家" style="swimlane;html=1;startSize=20;horizontal=0;" parent="dNxyNK7c78bLwvsdeMH5-19" vertex="1">
          <mxGeometry x="20" width="2180" height="120" as="geometry" />
        </mxCell>
        <mxCell id="dNxyNK7c78bLwvsdeMH5-25" value="" style="edgeStyle=orthogonalEdgeStyle;rounded=0;orthogonalLoop=1;jettySize=auto;html=1;" parent="dNxyNK7c78bLwvsdeMH5-20" source="dNxyNK7c78bLwvsdeMH5-23" target="dNxyNK7c78bLwvsdeMH5-24" edge="1">
          <mxGeometry relative="1" as="geometry" />
        </mxCell>
        <mxCell id="dNxyNK7c78bLwvsdeMH5-23" value="决策" style="ellipse;whiteSpace=wrap;html=1;" parent="dNxyNK7c78bLwvsdeMH5-20" vertex="1">
          <mxGeometry x="40" y="40" width="40" height="40" as="geometry" />
        </mxCell>
        <mxCell id="urXomZocVGPRo9iEpME_-9" style="edgeStyle=orthogonalEdgeStyle;rounded=0;orthogonalLoop=1;jettySize=auto;html=1;exitX=1;exitY=0.5;exitDx=0;exitDy=0;entryX=0;entryY=0.5;entryDx=0;entryDy=0;dashed=1;" edge="1" parent="dNxyNK7c78bLwvsdeMH5-20" source="dNxyNK7c78bLwvsdeMH5-24" target="dNxyNK7c78bLwvsdeMH5-30">
          <mxGeometry relative="1" as="geometry" />
        </mxCell>
        <mxCell id="urXomZocVGPRo9iEpME_-35" value="总和 134~216ms" style="edgeLabel;html=1;align=center;verticalAlign=middle;resizable=0;points=[];" vertex="1" connectable="0" parent="urXomZocVGPRo9iEpME_-9">
          <mxGeometry x="0.6185" relative="1" as="geometry">
            <mxPoint y="1" as="offset" />
          </mxGeometry>
        </mxCell>
        <mxCell id="dNxyNK7c78bLwvsdeMH5-24" value="执行操作" style="rounded=0;whiteSpace=wrap;html=1;fontFamily=Helvetica;fontSize=12;fontColor=#000000;align=center;" parent="dNxyNK7c78bLwvsdeMH5-20" vertex="1">
          <mxGeometry x="120" y="30" width="80" height="60" as="geometry" />
        </mxCell>
        <mxCell id="dNxyNK7c78bLwvsdeMH5-33" value="" style="edgeStyle=orthogonalEdgeStyle;rounded=0;orthogonalLoop=1;jettySize=auto;html=1;endArrow=classic;endFill=1;" parent="dNxyNK7c78bLwvsdeMH5-20" source="dNxyNK7c78bLwvsdeMH5-30" target="dNxyNK7c78bLwvsdeMH5-32" edge="1">
          <mxGeometry relative="1" as="geometry" />
        </mxCell>
        <mxCell id="dNxyNK7c78bLwvsdeMH5-30" value="视觉反馈" style="rounded=0;whiteSpace=wrap;html=1;fontFamily=Helvetica;fontSize=12;fontColor=#000000;align=center;" parent="dNxyNK7c78bLwvsdeMH5-20" vertex="1">
          <mxGeometry x="1985" y="30" width="80" height="60" as="geometry" />
        </mxCell>
        <mxCell id="dNxyNK7c78bLwvsdeMH5-32" value="感受" style="ellipse;whiteSpace=wrap;html=1;" parent="dNxyNK7c78bLwvsdeMH5-20" vertex="1">
          <mxGeometry x="2120" y="40" width="40" height="40" as="geometry" />
        </mxCell>
        <mxCell id="dNxyNK7c78bLwvsdeMH5-21" value="客户端（30FPS）" style="swimlane;html=1;startSize=20;horizontal=0;" parent="dNxyNK7c78bLwvsdeMH5-19" vertex="1">
          <mxGeometry x="20" y="120" width="2180" height="120" as="geometry" />
        </mxCell>
        <mxCell id="urXomZocVGPRo9iEpME_-12" value="下一帧&lt;br&gt;0~33ms" style="edgeStyle=orthogonalEdgeStyle;rounded=0;orthogonalLoop=1;jettySize=auto;html=1;exitX=1;exitY=0.5;exitDx=0;exitDy=0;entryX=0;entryY=0.5;entryDx=0;entryDy=0;" edge="1" parent="dNxyNK7c78bLwvsdeMH5-21" source="dNxyNK7c78bLwvsdeMH5-26" target="urXomZocVGPRo9iEpME_-10">
          <mxGeometry relative="1" as="geometry" />
        </mxCell>
        <mxCell id="dNxyNK7c78bLwvsdeMH5-26" value="UI 响应&lt;br&gt;放入战场命令队列" style="rounded=0;whiteSpace=wrap;html=1;fontFamily=Helvetica;fontSize=12;fontColor=#000000;align=center;" parent="dNxyNK7c78bLwvsdeMH5-21" vertex="1">
          <mxGeometry x="105" y="30" width="110" height="60" as="geometry" />
        </mxCell>
        <mxCell id="urXomZocVGPRo9iEpME_-15" value="下一帧&lt;br&gt;33ms" style="edgeStyle=orthogonalEdgeStyle;rounded=0;orthogonalLoop=1;jettySize=auto;html=1;exitX=1;exitY=0.5;exitDx=0;exitDy=0;entryX=0;entryY=0.5;entryDx=0;entryDy=0;" edge="1" parent="dNxyNK7c78bLwvsdeMH5-21" source="urXomZocVGPRo9iEpME_-10" target="urXomZocVGPRo9iEpME_-11">
          <mxGeometry relative="1" as="geometry" />
        </mxCell>
        <mxCell id="urXomZocVGPRo9iEpME_-10" value="战场 Tick&lt;br&gt;调用 UTP 发送&lt;br&gt;（存入 UTP 消息队列）" style="rounded=0;whiteSpace=wrap;html=1;fontFamily=Helvetica;fontSize=12;fontColor=#000000;align=center;" vertex="1" parent="dNxyNK7c78bLwvsdeMH5-21">
          <mxGeometry x="310" y="30" width="130" height="60" as="geometry" />
        </mxCell>
        <mxCell id="urXomZocVGPRo9iEpME_-11" value="UTP Tick&lt;br&gt;发送消息队列" style="rounded=0;whiteSpace=wrap;html=1;fontFamily=Helvetica;fontSize=12;fontColor=#000000;align=center;" vertex="1" parent="dNxyNK7c78bLwvsdeMH5-21">
          <mxGeometry x="550" y="30" width="100" height="60" as="geometry" />
        </mxCell>
        <mxCell id="urXomZocVGPRo9iEpME_-30" value="下一帧&lt;br&gt;0~33ms" style="edgeStyle=none;rounded=0;orthogonalLoop=1;jettySize=auto;html=1;exitX=1;exitY=0.5;exitDx=0;exitDy=0;entryX=0;entryY=0.5;entryDx=0;entryDy=0;elbow=vertical;" edge="1" parent="dNxyNK7c78bLwvsdeMH5-21" source="urXomZocVGPRo9iEpME_-28" target="urXomZocVGPRo9iEpME_-29">
          <mxGeometry relative="1" as="geometry" />
        </mxCell>
        <mxCell id="urXomZocVGPRo9iEpME_-28" value="信号传输" style="rounded=0;whiteSpace=wrap;html=1;fontFamily=Helvetica;fontSize=12;fontColor=#000000;align=center;" vertex="1" parent="dNxyNK7c78bLwvsdeMH5-21">
          <mxGeometry x="1570" y="30" width="100" height="60" as="geometry" />
        </mxCell>
        <mxCell id="urXomZocVGPRo9iEpME_-32" value="下一帧&lt;br&gt;33ms" style="edgeStyle=none;rounded=0;orthogonalLoop=1;jettySize=auto;html=1;exitX=1;exitY=0.5;exitDx=0;exitDy=0;entryX=0;entryY=0.5;entryDx=0;entryDy=0;elbow=vertical;" edge="1" parent="dNxyNK7c78bLwvsdeMH5-21" source="urXomZocVGPRo9iEpME_-29" target="urXomZocVGPRo9iEpME_-31">
          <mxGeometry relative="1" as="geometry" />
        </mxCell>
        <mxCell id="urXomZocVGPRo9iEpME_-29" value="UTP 接收消息&lt;br&gt;放入 UTP 消息队列" style="rounded=0;whiteSpace=wrap;html=1;fontFamily=Helvetica;fontSize=12;fontColor=#000000;align=center;" vertex="1" parent="dNxyNK7c78bLwvsdeMH5-21">
          <mxGeometry x="1760" y="30" width="110" height="60" as="geometry" />
        </mxCell>
        <mxCell id="urXomZocVGPRo9iEpME_-31" value="UTP Tick&lt;br&gt;执行消息队列&lt;br&gt;（创建对应表现）" style="rounded=0;whiteSpace=wrap;html=1;fontFamily=Helvetica;fontSize=12;fontColor=#000000;align=center;" vertex="1" parent="dNxyNK7c78bLwvsdeMH5-21">
          <mxGeometry x="1960" y="30" width="130" height="60" as="geometry" />
        </mxCell>
        <mxCell id="urXomZocVGPRo9iEpME_-3" style="edgeStyle=orthogonalEdgeStyle;rounded=0;orthogonalLoop=1;jettySize=auto;html=1;exitX=0.5;exitY=1;exitDx=0;exitDy=0;entryX=0.5;entryY=0;entryDx=0;entryDy=0;" edge="1" parent="dNxyNK7c78bLwvsdeMH5-19" source="dNxyNK7c78bLwvsdeMH5-24" target="dNxyNK7c78bLwvsdeMH5-26">
          <mxGeometry relative="1" as="geometry" />
        </mxCell>
        <mxCell id="urXomZocVGPRo9iEpME_-16" style="edgeStyle=orthogonalEdgeStyle;rounded=0;orthogonalLoop=1;jettySize=auto;html=1;exitX=0.5;exitY=1;exitDx=0;exitDy=0;entryX=0.5;entryY=0;entryDx=0;entryDy=0;elbow=vertical;dashed=1;dashPattern=1 1;curved=1;" edge="1" parent="dNxyNK7c78bLwvsdeMH5-19" source="urXomZocVGPRo9iEpME_-11" target="dNxyNK7c78bLwvsdeMH5-34">
          <mxGeometry relative="1" as="geometry" />
        </mxCell>
        <mxCell id="urXomZocVGPRo9iEpME_-17" value="网络传输&lt;br&gt;&amp;lt; 10ms" style="edgeLabel;html=1;align=center;verticalAlign=middle;resizable=0;points=[];" vertex="1" connectable="0" parent="urXomZocVGPRo9iEpME_-16">
          <mxGeometry x="-0.329" y="1" relative="1" as="geometry">
            <mxPoint as="offset" />
          </mxGeometry>
        </mxCell>
        <mxCell id="dNxyNK7c78bLwvsdeMH5-22" value="服务端（60FPS）" style="swimlane;html=1;startSize=20;horizontal=0;" parent="dNxyNK7c78bLwvsdeMH5-19" vertex="1">
          <mxGeometry x="20" y="240" width="2180" height="110" as="geometry" />
        </mxCell>
        <mxCell id="urXomZocVGPRo9iEpME_-19" style="rounded=0;orthogonalLoop=1;jettySize=auto;html=1;exitX=1;exitY=0.5;exitDx=0;exitDy=0;entryX=0;entryY=0.5;entryDx=0;entryDy=0;elbow=vertical;" edge="1" parent="dNxyNK7c78bLwvsdeMH5-22" source="dNxyNK7c78bLwvsdeMH5-34" target="urXomZocVGPRo9iEpME_-18">
          <mxGeometry relative="1" as="geometry" />
        </mxCell>
        <mxCell id="urXomZocVGPRo9iEpME_-20" value="下一帧&lt;br&gt;0~16ms" style="edgeLabel;html=1;align=center;verticalAlign=middle;resizable=0;points=[];" vertex="1" connectable="0" parent="urXomZocVGPRo9iEpME_-19">
          <mxGeometry x="0.0222" relative="1" as="geometry">
            <mxPoint y="1" as="offset" />
          </mxGeometry>
        </mxCell>
        <mxCell id="dNxyNK7c78bLwvsdeMH5-34" value="信号传输" style="rounded=0;whiteSpace=wrap;html=1;fontFamily=Helvetica;fontSize=12;fontColor=#000000;align=center;" parent="dNxyNK7c78bLwvsdeMH5-22" vertex="1">
          <mxGeometry x="610" y="20" width="80" height="60" as="geometry" />
        </mxCell>
        <mxCell id="urXomZocVGPRo9iEpME_-22" value="下一帧&lt;br&gt;16ms" style="edgeStyle=none;rounded=0;orthogonalLoop=1;jettySize=auto;html=1;exitX=1;exitY=0.5;exitDx=0;exitDy=0;elbow=vertical;" edge="1" parent="dNxyNK7c78bLwvsdeMH5-22" source="urXomZocVGPRo9iEpME_-18" target="urXomZocVGPRo9iEpME_-21">
          <mxGeometry relative="1" as="geometry" />
        </mxCell>
        <mxCell id="urXomZocVGPRo9iEpME_-18" value="UTP 接收消息&lt;br&gt;放入 UTP 消息队列" style="rounded=0;whiteSpace=wrap;html=1;fontFamily=Helvetica;fontSize=12;fontColor=#000000;align=center;" vertex="1" parent="dNxyNK7c78bLwvsdeMH5-22">
          <mxGeometry x="790" y="20" width="110" height="60" as="geometry" />
        </mxCell>
        <mxCell id="urXomZocVGPRo9iEpME_-24" value="下一帧&lt;br&gt;16ms" style="edgeStyle=none;rounded=0;orthogonalLoop=1;jettySize=auto;html=1;exitX=1;exitY=0.5;exitDx=0;exitDy=0;entryX=0;entryY=0.5;entryDx=0;entryDy=0;elbow=vertical;" edge="1" parent="dNxyNK7c78bLwvsdeMH5-22" source="urXomZocVGPRo9iEpME_-21" target="urXomZocVGPRo9iEpME_-23">
          <mxGeometry relative="1" as="geometry" />
        </mxCell>
        <mxCell id="urXomZocVGPRo9iEpME_-21" value="UTP Tick&lt;br&gt;执行消息队列&lt;br&gt;（放入战场命令队列）" style="rounded=0;whiteSpace=wrap;html=1;fontFamily=Helvetica;fontSize=12;fontColor=#000000;align=center;" vertex="1" parent="dNxyNK7c78bLwvsdeMH5-22">
          <mxGeometry x="1000" y="20" width="130" height="60" as="geometry" />
        </mxCell>
        <mxCell id="urXomZocVGPRo9iEpME_-27" value="下一帧&lt;br&gt;16ms" style="edgeStyle=none;rounded=0;orthogonalLoop=1;jettySize=auto;html=1;exitX=1;exitY=0.5;exitDx=0;exitDy=0;entryX=0;entryY=0.5;entryDx=0;entryDy=0;elbow=vertical;" edge="1" parent="dNxyNK7c78bLwvsdeMH5-22" source="urXomZocVGPRo9iEpME_-23" target="urXomZocVGPRo9iEpME_-26">
          <mxGeometry relative="1" as="geometry" />
        </mxCell>
        <mxCell id="urXomZocVGPRo9iEpME_-23" value="执行战场命令&lt;br&gt;调用 UTP 发送&lt;br&gt;（存入 UTP 消息队列）" style="rounded=0;whiteSpace=wrap;html=1;fontFamily=Helvetica;fontSize=12;fontColor=#000000;align=center;" vertex="1" parent="dNxyNK7c78bLwvsdeMH5-22">
          <mxGeometry x="1230" y="20" width="130" height="60" as="geometry" />
        </mxCell>
        <mxCell id="urXomZocVGPRo9iEpME_-26" value="UTP Tick&lt;br&gt;发送消息队列" style="rounded=0;whiteSpace=wrap;html=1;fontFamily=Helvetica;fontSize=12;fontColor=#000000;align=center;" vertex="1" parent="dNxyNK7c78bLwvsdeMH5-22">
          <mxGeometry x="1460" y="20" width="130" height="60" as="geometry" />
        </mxCell>
        <mxCell id="urXomZocVGPRo9iEpME_-33" style="edgeStyle=none;rounded=0;orthogonalLoop=1;jettySize=auto;html=1;exitX=0.5;exitY=0;exitDx=0;exitDy=0;entryX=0.5;entryY=1;entryDx=0;entryDy=0;elbow=vertical;" edge="1" parent="dNxyNK7c78bLwvsdeMH5-19" source="urXomZocVGPRo9iEpME_-31" target="dNxyNK7c78bLwvsdeMH5-30">
          <mxGeometry relative="1" as="geometry" />
        </mxCell>
        <mxCell id="urXomZocVGPRo9iEpME_-34" value="网络传输&lt;br&gt;&amp;lt;10ms" style="edgeStyle=orthogonalEdgeStyle;rounded=0;orthogonalLoop=1;jettySize=auto;html=1;exitX=0.5;exitY=0;exitDx=0;exitDy=0;entryX=0.5;entryY=1;entryDx=0;entryDy=0;elbow=vertical;curved=1;dashed=1;" edge="1" parent="dNxyNK7c78bLwvsdeMH5-19" source="urXomZocVGPRo9iEpME_-26" target="urXomZocVGPRo9iEpME_-28">
          <mxGeometry relative="1" as="geometry" />
        </mxCell>
      </root>
    </mxGraphModel>
  </diagram>
</mxfile>
